<svg xmlns="http://www.w3.org/2000/svg" viewBox="0 0 800 700" width="800" height="700">
  <defs>
    <linearGradient id="bg4" x1="0" y1="0" x2="0" y2="1">
      <stop offset="0%" stop-color="#0a1520"/>
      <stop offset="100%" stop-color="#060c14"/>
    </linearGradient>
    <radialGradient id="glow4" cx="50%" cy="40%" r="50%">
      <stop offset="0%" stop-color="#00c896" stop-opacity="0.1"/>
      <stop offset="100%" stop-color="transparent"/>
    </radialGradient>
  </defs>
  <rect width="800" height="700" fill="url(#bg4)"/>
  <rect width="800" height="700" fill="url(#glow4)"/>
  <!-- Phone frame -->
  <rect x="200" y="30" width="260" height="500" rx="36" fill="#0d1a26" stroke="#1e2e3e" stroke-width="2"/>
  <rect x="206" y="36" width="248" height="488" rx="32" fill="#080e18"/>
  <!-- Notch -->
  <rect x="290" y="36" width="80" height="22" rx="11" fill="#0d1a26"/>
  <!-- Status bar -->
  <rect x="214" y="66" width="60" height="6" rx="2" fill="#ffffff" opacity="0.5"/>
  <rect x="358" y="66" width="80" height="6" rx="2" fill="#ffffff" opacity="0.5"/>
  <!-- App header -->
  <rect x="214" y="82" width="232" height="50" rx="0" fill="#080e18"/>
  <rect x="226" y="90" width="100" height="12" rx="3" fill="#00c896" opacity="0.9"/>
  <rect x="226" y="106" width="70" height="8" rx="2" fill="#ffffff" opacity="0.35"/>
  <rect x="400" y="88" width="34" height="34" rx="17" fill="#00c896" opacity="0.15"/>
  <!-- Map view -->
  <rect x="214" y="138" width="232" height="160" rx="8" fill="#0a1520"/>
  <!-- Map dots - charge points -->
  <circle cx="280" cy="200" r="8" fill="#00c896" opacity="0.9"/>
  <circle cx="280" cy="200" r="14" fill="#00c896" opacity="0.15"/>
  <circle cx="330" cy="175" r="8" fill="#00c896" opacity="0.9"/>
  <circle cx="330" cy="175" r="14" fill="#00c896" opacity="0.15"/>
  <circle cx="380" cy="210" r="8" fill="#7aabdc" opacity="0.9"/>
  <circle cx="380" cy="210" r="14" fill="#7aabdc" opacity="0.15"/>
  <circle cx="310" cy="245" r="8" fill="#f07845" opacity="0.9"/>
  <circle cx="410" cy="185" r="5" fill="#00c896" opacity="0.6"/>
  <!-- Map grid lines -->
  <line x1="214" y1="165" x2="446" y2="165" stroke="#ffffff" stroke-opacity="0.04"/>
  <line x1="214" y1="200" x2="446" y2="200" stroke="#ffffff" stroke-opacity="0.04"/>
  <line x1="214" y1="235" x2="446" y2="235" stroke="#ffffff" stroke-opacity="0.04"/>
  <line x1="290" y1="138" x2="290" y2="298" stroke="#ffffff" stroke-opacity="0.04"/>
  <line x1="370" y1="138" x2="370" y2="298" stroke="#ffffff" stroke-opacity="0.04"/>
  <!-- Charging card -->
  <rect x="214" y="310" width="232" height="100" rx="10" fill="#0d1a26"/>
  <rect x="214" y="310" width="232" height="4" rx="2" fill="#00c896"/>
  <circle cx="240" cy="345" r="14" fill="#00c896" opacity="0.15"/>
  <rect x="260" y="326" width="100" height="10" rx="2" fill="#ffffff" opacity="0.7"/>
  <rect x="260" y="342" width="70" height="8" rx="2" fill="#ffffff" opacity="0.35"/>
  <rect x="226" y="370" width="120" height="28" rx="14" fill="#00c896" opacity="0.9"/>
  <rect x="236" y="378" width="100" height="12" rx="2" fill="#060c14" opacity="0.8"/>
  <rect x="362" y="370" width="70" height="28" rx="14" fill="#0a1520" stroke="#1e2e3e" stroke-width="1"/>
  <!-- Bottom nav -->
  <rect x="214" y="490" width="232" height="50" rx="0" fill="#0d1a26"/>
  <rect x="214" y="490" width="232" height="1" fill="#1e2e3e"/>
  <circle cx="272" cy="515" r="12" fill="#00c896" opacity="0.15"/>
  <circle cx="330" cy="515" r="12" fill="none"/>
  <circle cx="388" cy="515" r="12" fill="none"/>
  <!-- Second phone (background, offset) -->
  <rect x="360" y="80" width="230" height="440" rx="32" fill="#0d1a26" stroke="#1e2e3e" stroke-width="1.5" opacity="0.6"/>
  <rect x="366" y="86" width="218" height="428" rx="28" fill="#060c14" opacity="0.6"/>
  <rect x="378" y="110" width="194" height="110" rx="8" fill="#0a1520" opacity="0.6"/>
  <circle cx="440" cy="155" r="7" fill="#00c896" opacity="0.5"/>
  <circle cx="480" cy="140" r="7" fill="#7aabdc" opacity="0.5"/>
  <circle cx="520" cy="162" r="7" fill="#00c896" opacity="0.5"/>
  <rect x="378" y="232" width="194" height="80" rx="8" fill="#0d1a26" opacity="0.6"/>
  <rect x="390" y="248" width="120" height="10" rx="2" fill="#00c896" opacity="0.4"/>
  <rect x="390" y="264" width="170" height="8" rx="2" fill="#ffffff" opacity="0.2"/>
  <rect x="390" y="278" width="140" height="8" rx="2" fill="#ffffff" opacity="0.15"/>
</svg>