<svg xmlns="http://www.w3.org/2000/svg" viewBox="0 0 800 600" width="800" height="600">
  <defs>
    <linearGradient id="bg6" x1="0" y1="0" x2="1" y2="1">
      <stop offset="0%" stop-color="#0a1520"/>
      <stop offset="100%" stop-color="#060c14"/>
    </linearGradient>
  </defs>
  <rect width="800" height="600" fill="url(#bg6)"/>
  <!-- Subscription cards -->
  <rect x="30" y="30" width="228" height="320" rx="16" fill="#0d1a26" stroke="#1a2a3a" stroke-width="1"/>
  <rect x="30" y="30" width="228" height="5" rx="3" fill="#7aabdc"/>
  <rect x="46" y="52" width="80" height="12" rx="3" fill="#ffffff" opacity="0.7"/>
  <rect x="46" y="70" width="120" height="8" rx="2" fill="#ffffff" opacity="0.3"/>
  <text x="46" y="118" fill="#7aabdc" font-size="28" font-family="monospace" font-weight="bold">€29</text>
  <rect x="46" y="126" width="60" height="8" rx="2" fill="#ffffff" opacity="0.3"/>
  <rect x="46" y="150" width="196" height="1" fill="#ffffff" opacity="0.06"/>
  <rect x="46" y="166" width="160" height="8" rx="2" fill="#ffffff" opacity="0.4"/>
  <rect x="46" y="182" width="140" height="8" rx="2" fill="#ffffff" opacity="0.4"/>
  <rect x="46" y="198" width="150" height="8" rx="2" fill="#ffffff" opacity="0.4"/>
  <rect x="46" y="214" width="130" height="8" rx="2" fill="#ffffff" opacity="0.4"/>
  <rect x="46" y="306" width="196" height="36" rx="18" fill="#7aabdc" opacity="0.15" stroke="#7aabdc" stroke-width="1"/>
  <rect x="86" y="317" width="116" height="14" rx="3" fill="#7aabdc" opacity="0.7"/>
  <!-- Featured card -->
  <rect x="276" y="10" width="248" height="360" rx="16" fill="#0d2010" stroke="#00c896" stroke-width="1.5"/>
  <rect x="276" y="10" width="248" height="5" rx="3" fill="#00c896"/>
  <rect x="340" y="20" width="120" height="20" rx="10" fill="#00c896" opacity="0.15"/>
  <rect x="358" y="26" width="84" height="8" rx="2" fill="#00c896" opacity="0.8"/>
  <rect x="292" y="52" width="100" height="12" rx="3" fill="#ffffff" opacity="0.7"/>
  <rect x="292" y="70" width="140" height="8" rx="2" fill="#ffffff" opacity="0.3"/>
  <text x="292" y="120" fill="#00c896" font-size="34" font-family="monospace" font-weight="bold">€49</text>
  <rect x="292" y="128" width="70" height="8" rx="2" fill="#ffffff" opacity="0.3"/>
  <rect x="292" y="154" width="216" height="1" fill="#00c896" opacity="0.15"/>
  <rect x="292" y="170" width="180" height="8" rx="2" fill="#ffffff" opacity="0.5"/>
  <rect x="292" y="186" width="160" height="8" rx="2" fill="#ffffff" opacity="0.5"/>
  <rect x="292" y="202" width="190" height="8" rx="2" fill="#ffffff" opacity="0.5"/>
  <rect x="292" y="218" width="170" height="8" rx="2" fill="#ffffff" opacity="0.5"/>
  <rect x="292" y="234" width="150" height="8" rx="2" fill="#ffffff" opacity="0.5"/>
  <rect x="292" y="322" width="216" height="40" rx="20" fill="#00c896"/>
  <rect x="342" y="335" width="116" height="14" rx="3" fill="#060c14" opacity="0.9"/>
  <!-- Enterprise card -->
  <rect x="542" y="30" width="228" height="320" rx="16" fill="#0d1a26" stroke="#1a2a3a" stroke-width="1"/>
  <rect x="542" y="30" width="228" height="5" rx="3" fill="#f07845"/>
  <rect x="558" y="52" width="90" height="12" rx="3" fill="#ffffff" opacity="0.7"/>
  <rect x="558" y="70" width="120" height="8" rx="2" fill="#ffffff" opacity="0.3"/>
  <rect x="558" y="100" width="160" height="24" rx="6" fill="#f07845" opacity="0.1"/>
  <rect x="568" y="108" width="140" height="8" rx="2" fill="#f07845" opacity="0.6"/>
  <rect x="558" y="150" width="196" height="1" fill="#ffffff" opacity="0.06"/>
  <rect x="558" y="166" width="160" height="8" rx="2" fill="#ffffff" opacity="0.4"/>
  <rect x="558" y="182" width="150" height="8" rx="2" fill="#ffffff" opacity="0.4"/>
  <rect x="558" y="198" width="170" height="8" rx="2" fill="#ffffff" opacity="0.4"/>
  <rect x="558" y="214" width="140" height="8" rx="2" fill="#ffffff" opacity="0.4"/>
  <rect x="558" y="230" width="160" height="8" rx="2" fill="#ffffff" opacity="0.4"/>
  <rect x="558" y="306" width="196" height="36" rx="18" fill="#f07845" opacity="0.15" stroke="#f07845" stroke-width="1"/>
  <rect x="592" y="317" width="128" height="14" rx="3" fill="#f07845" opacity="0.7"/>
  <!-- Stats below -->
  <rect x="30" y="380" width="740" height="100" rx="12" fill="#0d1a26"/>
  <rect x="30" y="380" width="740" height="3" rx="2" fill="#00c896" opacity="0.5"/>
  <rect x="56" y="400" width="100" height="10" rx="2" fill="#ffffff" opacity="0.4"/>
  <text x="60" y="448" fill="#00c896" font-size="28" font-family="monospace" font-weight="bold">+43%</text>
  <rect x="56" y="456" width="100" height="8" rx="2" fill="#00c896" opacity="0.5"/>
  <rect x="240" y="400" width="1" height="64" fill="#ffffff" opacity="0.07"/>
  <rect x="268" y="400" width="120" height="10" rx="2" fill="#ffffff" opacity="0.4"/>
  <text x="272" y="448" fill="#7aabdc" font-size="28" font-family="monospace" font-weight="bold">€29k</text>
  <rect x="268" y="456" width="100" height="8" rx="2" fill="#7aabdc" opacity="0.5"/>
  <rect x="460" y="400" width="1" height="64" fill="#ffffff" opacity="0.07"/>
  <rect x="488" y="400" width="120" height="10" rx="2" fill="#ffffff" opacity="0.4"/>
  <text x="492" y="448" fill="#8ec87e" font-size="28" font-family="monospace" font-weight="bold">1200+</text>
  <rect x="488" y="456" width="100" height="8" rx="2" fill="#8ec87e" opacity="0.5"/>
  <rect x="680" y="400" width="1" height="64" fill="#ffffff" opacity="0.07"/>
  <rect x="700" y="400" width="100" height="10" rx="2" fill="#ffffff" opacity="0.4"/>
  <text x="704" y="448" fill="#f07845" font-size="28" font-family="monospace" font-weight="bold">98%</text>
  <rect x="700" y="456" width="70" height="8" rx="2" fill="#f07845" opacity="0.5"/>
  <!-- Usage graph -->
  <rect x="30" y="500" width="740" height="80" rx="12" fill="#0d1a26"/>
  <polyline points="50,560 120,540 190,520 260,510 330,490 400,465 470,445 540,430 610,418 680,408 750,400" fill="none" stroke="#00c896" stroke-width="2.5"/>
  <polyline points="50,560 120,540 190,520 260,510 330,490 400,465 470,445 540,430 610,418 680,408 750,400 750,572 50,572" fill="#00c896" fill-opacity="0.06"/>
</svg>