<svg xmlns="http://www.w3.org/2000/svg" viewBox="0 0 1200 700" width="1200" height="700">
  <defs>
    <linearGradient id="bg" x1="0" y1="0" x2="0" y2="1">
      <stop offset="0%" stop-color="#0a0f1a"/>
      <stop offset="100%" stop-color="#060c14"/>
    </linearGradient>
  </defs>
  <rect width="1200" height="700" fill="url(#bg)"/>
  <!-- Left sidebar -->
  <rect width="220" height="700" fill="#0d1520" rx="0"/>
  <rect x="16" y="20" width="32" height="32" rx="8" fill="#00c896" opacity="0.9"/>
  <rect x="56" y="24" width="80" height="10" rx="3" fill="#ffffff" opacity="0.8"/>
  <rect x="56" y="38" width="50" height="6" rx="2" fill="#ffffff" opacity="0.3"/>
  <!-- Nav items -->
  <rect x="16" y="80" width="188" height="36" rx="6" fill="#00c896" opacity="0.12"/>
  <rect x="40" y="92" width="80" height="10" rx="2" fill="#00c896" opacity="0.9"/>
  <rect x="16" y="124" width="188" height="36" rx="6" fill="none"/>
  <rect x="40" y="136" width="70" height="10" rx="2" fill="#ffffff" opacity="0.4"/>
  <rect x="16" y="168" width="188" height="36" rx="6" fill="none"/>
  <rect x="40" y="180" width="90" height="10" rx="2" fill="#ffffff" opacity="0.4"/>
  <rect x="16" y="212" width="188" height="36" rx="6" fill="none"/>
  <rect x="40" y="224" width="75" height="10" rx="2" fill="#ffffff" opacity="0.4"/>
  <rect x="16" y="256" width="188" height="36" rx="6" fill="none"/>
  <rect x="40" y="268" width="85" height="10" rx="2" fill="#ffffff" opacity="0.4"/>
  <!-- Main content area -->
  <rect x="240" y="20" width="940" height="60" rx="8" fill="#0d1a26"/>
  <rect x="260" y="35" width="120" height="10" rx="3" fill="#ffffff" opacity="0.7"/>
  <rect x="1060" y="30" width="100" height="30" rx="15" fill="#00c896" opacity="0.9"/>
  <rect x="1068" y="39" width="84" height="12" rx="2" fill="#060c14" opacity="0.8"/>
  <!-- KPI cards row -->
  <rect x="240" y="100" width="210" height="110" rx="10" fill="#0d1a26"/>
  <rect x="258" y="118" width="80" height="8" rx="2" fill="#ffffff" opacity="0.4"/>
  <rect x="258" y="136" width="140" height="28" rx="3" fill="#00c896" opacity="0.15"/>
  <text x="262" y="157" fill="#00c896" font-size="22" font-family="sans-serif" font-weight="bold" opacity="0.9">220k+</text>
  <rect x="258" y="172" width="100" height="8" rx="2" fill="#00c896" opacity="0.5"/>
  <rect x="462" y="100" width="210" height="110" rx="10" fill="#0d1a26"/>
  <rect x="480" y="118" width="80" height="8" rx="2" fill="#ffffff" opacity="0.4"/>
  <text x="484" y="157" fill="#00a3e0" font-size="22" font-family="sans-serif" font-weight="bold" opacity="0.9">98.3%</text>
  <rect x="480" y="172" width="100" height="8" rx="2" fill="#00a3e0" opacity="0.5"/>
  <rect x="684" y="100" width="210" height="110" rx="10" fill="#0d1a26"/>
  <rect x="702" y="118" width="80" height="8" rx="2" fill="#ffffff" opacity="0.4"/>
  <text x="706" y="157" fill="#7aabdc" font-size="22" font-family="sans-serif" font-weight="bold" opacity="0.9">+20%</text>
  <rect x="702" y="172" width="100" height="8" rx="2" fill="#7aabdc" opacity="0.5"/>
  <rect x="906" y="100" width="274" height="110" rx="10" fill="#0d1a26"/>
  <rect x="924" y="118" width="80" height="8" rx="2" fill="#ffffff" opacity="0.4"/>
  <text x="928" y="157" fill="#8ec87e" font-size="22" font-family="sans-serif" font-weight="bold" opacity="0.9">1000+</text>
  <rect x="924" y="172" width="100" height="8" rx="2" fill="#8ec87e" opacity="0.5"/>
  <!-- Chart area -->
  <rect x="240" y="230" width="620" height="260" rx="10" fill="#0d1a26"/>
  <rect x="260" y="248" width="120" height="10" rx="3" fill="#ffffff" opacity="0.6"/>
  <rect x="260" y="266" width="80" height="7" rx="2" fill="#ffffff" opacity="0.25"/>
  <!-- Bar chart -->
  <rect x="280" y="420" width="32" height="50" rx="3" fill="#00c896" opacity="0.7"/>
  <rect x="326" y="390" width="32" height="80" rx="3" fill="#00c896" opacity="0.7"/>
  <rect x="372" y="360" width="32" height="110" rx="3" fill="#00c896" opacity="0.8"/>
  <rect x="418" y="340" width="32" height="130" rx="3" fill="#00c896" opacity="0.85"/>
  <rect x="464" y="310" width="32" height="160" rx="3" fill="#00c896" opacity="0.9"/>
  <rect x="510" y="295" width="32" height="175" rx="3" fill="#00c896" opacity="0.95"/>
  <rect x="556" y="280" width="32" height="190" rx="3" fill="#00c896"/>
  <rect x="602" y="300" width="32" height="170" rx="3" fill="#7aabdc" opacity="0.7"/>
  <rect x="648" y="270" width="32" height="200" rx="3" fill="#00a3e0" opacity="0.8"/>
  <rect x="694" y="260" width="32" height="210" rx="3" fill="#00c896"/>
  <rect x="740" y="248" width="32" height="222" rx="3" fill="#00c896"/>
  <rect x="786" y="268" width="32" height="202" rx="3" fill="#7aabdc" opacity="0.7"/>
  <!-- Grid lines -->
  <line x1="260" y1="470" x2="840" y2="470" stroke="#ffffff" stroke-opacity="0.05" stroke-width="1"/>
  <line x1="260" y1="420" x2="840" y2="420" stroke="#ffffff" stroke-opacity="0.05" stroke-width="1"/>
  <line x1="260" y1="370" x2="840" y2="370" stroke="#ffffff" stroke-opacity="0.05" stroke-width="1"/>
  <line x1="260" y1="320" x2="840" y2="320" stroke="#ffffff" stroke-opacity="0.05" stroke-width="1"/>
  <line x1="260" y1="270" x2="840" y2="270" stroke="#ffffff" stroke-opacity="0.05" stroke-width="1"/>
  <!-- Right panel - charge points list -->
  <rect x="878" y="230" width="302" height="260" rx="10" fill="#0d1a26"/>
  <rect x="896" y="248" width="120" height="10" rx="3" fill="#ffffff" opacity="0.6"/>
  <rect x="896" y="276" width="266" height="40" rx="6" fill="#0a1520"/>
  <circle cx="916" cy="296" r="8" fill="#00c896" opacity="0.8"/>
  <rect x="932" y="288" width="100" height="8" rx="2" fill="#ffffff" opacity="0.5"/>
  <rect x="932" y="300" width="70" height="6" rx="2" fill="#ffffff" opacity="0.25"/>
  <rect x="896" y="324" width="266" height="40" rx="6" fill="#0a1520"/>
  <circle cx="916" cy="344" r="8" fill="#00a3e0" opacity="0.8"/>
  <rect x="932" y="336" width="90" height="8" rx="2" fill="#ffffff" opacity="0.5"/>
  <rect x="932" y="348" width="75" height="6" rx="2" fill="#ffffff" opacity="0.25"/>
  <rect x="896" y="372" width="266" height="40" rx="6" fill="#0a1520"/>
  <circle cx="916" cy="392" r="8" fill="#f07845" opacity="0.8"/>
  <rect x="932" y="384" width="110" height="8" rx="2" fill="#ffffff" opacity="0.5"/>
  <rect x="932" y="396" width="65" height="6" rx="2" fill="#ffffff" opacity="0.25"/>
  <rect x="896" y="420" width="266" height="40" rx="6" fill="#0a1520"/>
  <circle cx="916" cy="440" r="8" fill="#00c896" opacity="0.8"/>
  <rect x="932" y="432" width="95" height="8" rx="2" fill="#ffffff" opacity="0.5"/>
  <rect x="932" y="444" width="80" height="6" rx="2" fill="#ffffff" opacity="0.25"/>
  <!-- Map area -->
  <rect x="240" y="510" width="940" height="170" rx="10" fill="#0a1520"/>
  <rect x="258" y="526" width="80" height="10" rx="3" fill="#ffffff" opacity="0.5"/>
  <!-- Map dots -->
  <circle cx="380" cy="600" r="8" fill="#00c896" opacity="0.8"/>
  <circle cx="380" cy="600" r="14" fill="#00c896" opacity="0.15"/>
  <circle cx="520" cy="570" r="8" fill="#00c896" opacity="0.8"/>
  <circle cx="520" cy="570" r="14" fill="#00c896" opacity="0.15"/>
  <circle cx="660" cy="620" r="8" fill="#00a3e0" opacity="0.8"/>
  <circle cx="660" cy="620" r="14" fill="#00a3e0" opacity="0.15"/>
  <circle cx="800" cy="580" r="8" fill="#00c896" opacity="0.8"/>
  <circle cx="1000" cy="595" r="8" fill="#f07845" opacity="0.8"/>
  <circle cx="1000" cy="595" r="14" fill="#f07845" opacity="0.15"/>
  <circle cx="450" cy="645" r="6" fill="#00c896" opacity="0.6"/>
  <circle cx="720" cy="555" r="6" fill="#00c896" opacity="0.6"/>
  <!-- Map grid lines -->
  <line x1="258" y1="545" x2="1162" y2="545" stroke="#ffffff" stroke-opacity="0.04" stroke-width="1"/>
  <line x1="258" y1="580" x2="1162" y2="580" stroke="#ffffff" stroke-opacity="0.04" stroke-width="1"/>
  <line x1="258" y1="615" x2="1162" y2="615" stroke="#ffffff" stroke-opacity="0.04" stroke-width="1"/>
  <line x1="258" y1="650" x2="1162" y2="650" stroke="#ffffff" stroke-opacity="0.04" stroke-width="1"/>
</svg>